<?xml version="1.0" encoding="UTF-8"?>
<svg width="73px" height="73px" viewBox="0 0 73 73" version="1.1" xmlns="http://www.w3.org/2000/svg" xmlns:xlink="http://www.w3.org/1999/xlink">
    <title>GGIcon_GGRewards_SustainHOVER</title>
    <g id="Page-1" stroke="none" stroke-width="1" fill="none" fill-rule="evenodd" stroke-linecap="round">
        <g id="exploring-howto-2" transform="translate(-2143.000000, -2396.000000)" fill-rule="nonzero" stroke="#E3B430" stroke-width="2.00600191">
            <g id="Group-15" transform="translate(1888.000000, 2307.000000)">
                <g id="Group-10" transform="translate(38.000000, 90.000000)">
                    <g id="GGIcon_GGRewards_SustainHOVER" transform="translate(218.000000, 0.000000)">
                        <path d="M55.8356005,49.5611433 C55.7926838,47.5377647 57.095791,46.3291956 57.0567758,44.3019184 C57.0177606,42.2746413 56.4208283,40.1109127 54.8251071,38.8438645 C52.9835903,37.409176 50.3305576,38.8828506 48.0637753,38.3370452 C46.3432055,37.9198939 43.1790739,35.7522668 41.8915727,34.5436977 C40.6040715,33.3351286 41.1775948,31.6158416 40.9044885,29.7990894 C40.5974775,27.9545766 41.1588881,26.0716572 42.4260808,24.6958089 C43.6199455,23.4716454 51.5712406,23.475544 53.2840073,23.475544 C56.2179493,23.475544 58.2584436,25.8497975 60.7866277,24.3605285 C62.7100764,23.226033 58.4457165,16.9999528 57.7785568,16.6451793 C56.8992052,16.3285115 55.9800403,16.1356307 55.0474937,16.0720837 C53.2137799,15.9863142 52.5232111,16.8518057 50.7558232,17.4171041 C49.4527159,17.857647 43.1751723,18.4541344 42.7850205,18.2124205 C42.0047167,17.6666151 40.3621774,16.4151613 41.1736933,15.3859283 C41.532633,14.9375882 42.5938461,12.8674263 43.0386192,12.5672333 C43.7057789,12.1188932 46.7372589,11.9161654 47.4746459,11.7134377 C47.7789644,11.6276683 48.4461241,10.4152006 48.4812378,10.0994132 C48.5163514,9.78362578 49.9013906,7.28461679 51.1108614,6.88305996 C51.3371494,6.80898637 52.7612038,6.37234206 54.4505613,5.86942137 C42.3181955,-2.20456751 26.4499931,-1.92663071 14.6082525,6.56727256 C15.6616626,7.41327092 16.8048076,8.12671654 17.3783308,8.16960125 C19.5630874,8.32287766 21.7585148,8.19182685 23.9094731,7.77974026 C25.4427699,7.4834459 26.9643622,7.04680158 28.5210682,7.06239602 C30.769151,7.09494105 32.9022246,8.06110053 34.4084599,9.72904524 C34.6396254,9.96119953 34.8179496,10.2404545 34.9312634,10.5477533 C35.0552681,11.1378834 34.956611,11.7529897 34.6542555,12.2748376 C33.7134968,14.2815823 32.1659473,15.9425259 30.2299334,17.0233445 C28.8917124,17.7640804 27.2998928,18.2903927 26.503983,19.6003257 C26.0006871,20.426831 25.9109522,21.4404696 25.5168988,22.3293527 C24.6390571,24.2786576 22.3956838,25.3039921 20.2888637,25.654867 C18.1820437,26.0057419 17.4212475,25.7523322 15.333935,26.2864418 C14.8671565,26.378544 14.4295075,26.5818255 14.0581384,26.8790305 C13.0983648,27.7523191 13.5119258,29.4910992 14.5926465,30.2045448 C15.6733671,30.9179904 20.659508,34.5865824 21.8260621,34.5242046 C23.3692903,34.4287201 24.9165675,34.417007 26.4610663,34.4891172 C28.0216738,34.5787852 29.6447056,34.8516879 30.791752,35.8848195 C31.4784193,36.5007999 31.9231925,37.3312038 32.445996,38.0875342 C33.6164516,39.7834295 37.8105842,39.7171531 39.1722142,41.2610027 C40.5338442,42.8048522 39.1214944,46.0913804 39.1722142,48.1537451 C39.2102627,48.7110262 39.0826736,49.2671172 38.8054714,49.7521752 C38.5137944,50.1383398 38.1557976,50.4696689 37.7481599,50.7307263 C34.5333085,53.1088784 32.3094428,60.3252054 30.7683429,64.0132905 C29.3911068,64.6058792 26.3674299,61.5220787 25.5988307,60.2355374 C24.8302315,58.9489961 25.7704975,55.6195832 25.7431869,54.1186184 C25.7431869,52.8281785 25.7431869,51.4909552 25.2086788,50.3057778 C24.1240566,47.8262619 21.1315918,46.7619413 19.5826889,44.5397337 C19.1904847,44.0065475 18.9395171,43.3829489 18.8531049,42.72688 C18.6619305,40.777575 15.4119654,36.8555734 14.4287827,36.539786 C13.5236303,36.2434916 9.30608865,32.5359136 8.2721862,30.5983044 C7.23828375,28.6606953 7.7922994,26.5086625 7.46067031,24.3332382 C6.86763947,23.0622913 4.56184193,22.4346151 2.55255981,21.8771139 C-3.91176126,37.877158 2.25278775,56.1978721 17.0777406,65.0451841 C31.9026934,73.8924961 50.967893,70.6285218 62,57.3544646 C60.9558268,56.9054594 59.9441901,56.384386 58.9724215,55.7950206 C57.3688973,54.5591613 55.8785172,51.5923191 55.8356005,49.5611433 Z" id="Path"></path>
                        <path d="M7.87969719,23.9166592 C8.20940646,26.1100545 7.6547191,28.279865 8.68651516,30.2334805 C9.71831123,32.1870961 13.9075584,35.925302 14.8074708,36.2240441 C15.7849618,36.5424402 19.0161126,40.4811178 19.2061803,42.462249 C19.2920923,43.1237376 19.541607,43.7524877 19.9315407,44.2900785 C21.4831137,46.5306436 24.4466182,47.6037563 25.5249615,50.1037553 C26.0408595,51.2830001 26.0369806,52.6469932 26.0563753,53.9480933 C26.0835278,55.4614575 25.148705,58.8144435 25.9128548,60.1155436 C26.6770045,61.4166437 29.6831772,64.5219883 31.0524404,63.9245043 C32.6040135,60.2059524 34.7956104,52.9182195 37.9918508,50.5322142 C38.3971287,50.2690003 38.753053,49.9349341 39.0430415,49.5455794 C39.3186389,49.0565144 39.4454895,48.4958296 39.4076612,47.9339449 C39.3572351,45.8545432 40.7652876,42.5408653 39.4076612,40.9842622 C38.0500348,39.4276591 33.8879401,39.494483 32.7203814,37.784578 C32.2006045,37.0219997 31.7584062,36.1847359 31.075714,35.563667 C29.9353078,34.5220007 28.3061562,34.2468436 26.7700989,34.1564349 C25.2345413,34.083729 23.6962213,34.0955389 22.1619269,34.1918122 C20.9982472,34.2547053 16.0448503,30.5518766 14.9703859,29.8325373 C13.8959216,29.113198 13.4847548,27.360054 14.4389722,26.4795513 C14.8081914,26.1798911 15.2433068,25.9749303 15.7073831,25.8820672 C17.7826121,25.3435454 18.5196093,25.6029793 20.6336275,25.245275 C22.7476458,24.8875708 24.9586373,23.8852127 25.8313972,21.892289 C26.2192904,21 26.3123848,19.9779816 26.8127671,19.1407178 C27.5885536,17.8199636 29.1866739,17.2893035 30.5171477,16.5424485 C32.441954,15.4527013 33.9805447,13.7780368 34.9158573,11.7547146 C35.2164623,11.2285558 35.3145484,10.6083682 35.1912615,10.0133631 C35.0786037,9.70352568 34.9013118,9.42196386 34.6714845,9.18789176 C33.173969,7.50616833 31.0532438,6.53202751 28.8181753,6.49921363 C27.2666022,6.49921363 25.7576974,6.92374176 24.2332769,7.22248377 C22.0947707,7.63797457 19.9120528,7.77010798 17.7399438,7.61556537 C17.1697407,7.57625721 16.0332135,6.85298707 14.9859017,6 C9.63523651,9.89829308 5.48034164,15.2492683 3,21.4363143 C4.98601348,22.0023519 7.29009943,22.6352132 7.87969719,23.9166592 Z" id="Path" fill="#E3B430"></path>
                        <path d="M61.9329074,12.7110741 C59.8053665,10.1321809 57.3293601,7.87271704 54.5786572,6 C52.9026623,6.50775869 51.4821308,6.94860344 51.265374,7.0233896 C50.06547,7.41700098 48.6875158,9.99515555 48.6565505,10.2706835 C48.6255852,10.5462115 47.9598321,11.8136401 47.6579207,11.9002347 C46.9263664,12.1049126 43.9188651,12.293846 43.2569826,12.7622436 C42.8157276,13.0653244 41.7629086,15.1554008 41.4068081,15.6080539 C40.5784873,16.6471879 42.1925517,17.9185527 42.9666833,18.4617364 C43.3343958,18.7215199 49.5468018,18.1035501 50.8550842,17.6745137 C52.612363,17.0919688 53.2974694,16.2299599 55.112808,16.3165544 C56.0379782,16.3807128 56.9498726,16.575449 57.8222686,16.8951631 C58.4996338,17.2533495 62.7147803,23.5393233 60.8065459,24.6847324 C58.2983595,26.1883279 56.2740054,23.7951707 53.3632706,23.7912346 C51.6640518,23.7912346 43.7756508,23.7912346 42.5912294,25.0232382 C41.3340601,26.4123219 40.7770902,28.3133547 41.0816728,30.1756112 C41.3526189,32.0098403 40.7294429,33.6905609 42.0609493,34.9658618 C43.3924556,36.2411627 46.4773701,38.3745364 48.1843302,38.7957006 C50.4331825,39.3467565 53.0652299,37.8589055 54.8921805,39.3073954 C56.4752796,40.5669518 57.0636196,42.7554311 57.1061969,44.8179547 C57.1487741,46.8804784 55.8521037,48.0849292 55.8946809,50.1277723 C55.9372582,52.1706154 57.4158495,55.1738703 58.9912073,56.4255545 C59.9552894,57.0205894 60.9589241,57.5466754 61.9948379,58 C72.7105644,44.8634108 72.6633309,25.8161548 61.8825888,12.7346908 L61.9329074,12.7110741 Z" id="Path" fill="#E3B430"></path>
                    </g>
                </g>
            </g>
        </g>
    </g>
</svg>