<?xml version="1.0" encoding="UTF-8"?>
<svg width="70px" height="92px" viewBox="0 0 70 92" version="1.1" xmlns="http://www.w3.org/2000/svg" xmlns:xlink="http://www.w3.org/1999/xlink">
    <title>GGIcon_companies</title>
    <g id="Page-1" stroke="none" stroke-width="1" fill="none" fill-rule="evenodd">
        <g id="exploring-howto-2" transform="translate(-1542.000000, -2381.000000)">
            <g id="Group-13" transform="translate(1285.000000, 2307.000000)">
                <g id="Group-6" transform="translate(38.000000, 75.000000)">
                    <g id="GGIcon_companies" transform="translate(220.000000, 0.000000)">
                        <path d="M6.89973381,30 L25.1002662,30 C28.910884,30 32,33.1031634 32,36.9311095 L32,89 L0,89 L0,36.9311095 C0,33.1031634 3.08911605,30 6.89973381,30 Z" id="Path" stroke="#5D87A1" stroke-width="2"></path>
                        <path d="M8,30 L8,20.1764531 C8.05500616,18.9321952 9.14825054,17.9620628 10.4513652,18.0011402 L22.5486348,18.0011402 C23.8517495,17.9620628 24.9449938,18.9321952 25,20.1764531 L25,30" id="Path" stroke="#5D87A1" stroke-width="2"></path>
                        <line x1="16.5" y1="18" x2="16.5" y2="0" id="Path" stroke="#5D87A1" stroke-width="2" stroke-linecap="round" stroke-linejoin="round"></line>
                        <rect id="Rectangle" stroke="#5D87A1" stroke-width="2" fill="#5D87A1" stroke-linecap="round" stroke-linejoin="round" x="50" y="43" width="18" height="47"></rect>
                        <line x1="32" y1="53.5" x2="50" y2="53.5" id="Path" stroke="#5D87A1" stroke-width="2" stroke-linecap="round" stroke-linejoin="round"></line>
                        <line x1="32" y1="89.5" x2="50" y2="89.5" id="Path" stroke="#5D87A1" stroke-width="2" stroke-linecap="round" stroke-linejoin="round"></line>
                        <rect id="Rectangle" fill="#5D87A1" fill-rule="nonzero" x="56" y="35" width="11" height="8"></rect>
                        <rect id="Rectangle" fill="#FFFFFF" fill-rule="nonzero" x="56" y="50" width="6" height="6" rx="1.43"></rect>
                        <rect id="Rectangle" fill="#FFFFFF" fill-rule="nonzero" x="56" y="63" width="6" height="6" rx="1.43"></rect>
                        <rect id="Rectangle" fill="#FFFFFF" fill-rule="nonzero" x="56" y="75" width="6" height="6" rx="1.43"></rect>
                        <rect id="Rectangle" fill="#5D87A1" fill-rule="nonzero" x="38" y="63" width="6" height="6" rx="1.43"></rect>
                        <rect id="Rectangle" fill="#5D87A1" fill-rule="nonzero" x="38" y="75" width="6" height="6" rx="1.43"></rect>
                        <rect id="Rectangle" fill="#5D87A1" fill-rule="nonzero" x="18" y="75" width="6" height="6" rx="1.43"></rect>
                        <rect id="Rectangle" fill="#5D87A1" fill-rule="nonzero" x="18" y="63" width="6" height="6" rx="1.43"></rect>
                        <rect id="Rectangle" fill="#5D87A1" fill-rule="nonzero" x="18" y="50" width="6" height="6" rx="1.43"></rect>
                        <rect id="Rectangle" fill="#5D87A1" fill-rule="nonzero" x="18" y="38" width="6" height="6" rx="1.43"></rect>
                        <rect id="Rectangle" fill="#5D87A1" fill-rule="nonzero" x="7" y="75" width="6" height="6" rx="1.43"></rect>
                        <rect id="Rectangle" fill="#5D87A1" fill-rule="nonzero" x="7" y="63" width="6" height="6" rx="1.43"></rect>
                        <rect id="Rectangle" fill="#5D87A1" fill-rule="nonzero" x="7" y="50" width="6" height="6" rx="1.43"></rect>
                        <rect id="Rectangle" fill="#5D87A1" fill-rule="nonzero" x="7" y="38" width="6" height="6" rx="1.43"></rect>
                    </g>
                </g>
            </g>
        </g>
    </g>
</svg>