<?xml version="1.0" encoding="UTF-8"?>
<svg width="71px" height="72px" viewBox="0 0 71 72" version="1.1" xmlns="http://www.w3.org/2000/svg" xmlns:xlink="http://www.w3.org/1999/xlink">
    <title>GGIcon_GiftCard</title>
    <g id="Page-1" stroke="none" stroke-width="1" fill="none" fill-rule="evenodd">
        <g id="exploring-howto-2" transform="translate(-938.000000, -2401.000000)" stroke="#F08B1D" stroke-width="2">
            <g id="Group-12" transform="translate(681.000000, 2307.000000)">
                <g id="Group-4" transform="translate(38.000000, 95.000000)">
                    <g id="GGIcon_GiftCard" transform="translate(220.000000, 0.000000)">
                        <g id="Group" transform="translate(0.000000, 18.000000)">
                            <polyline id="Path" points="27.7040761 14 0 14 0 -4.53400105e-15 27.7040761 -4.53400105e-15"></polyline>
                            <polyline id="Path" points="41.2959239 -4.53400105e-15 69 -4.53400105e-15 69 14 41.2959239 14"></polyline>
                        </g>
                        <g id="Group" transform="translate(2.000000, 32.000000)">
                            <polyline id="Path" points="25.7046096 37 5.51456027e-16 37 5.51456027e-16 -4.40665123e-15 25.7046096 -4.40665123e-15"></polyline>
                            <polyline id="Path" points="40.2953904 -4.40665123e-15 66 -4.40665123e-15 66 37 40.2953904 37"></polyline>
                        </g>
                        <polygon id="Rectangle" fill="#F08B1D" transform="translate(34.500000, 44.000000) rotate(90.000000) translate(-34.500000, -44.000000) " points="9 37 60 37 60 51 9 51"></polygon>
                        <g id="Group" transform="translate(9.000000, 0.000000)">
                            <path d="M25.4072917,16.1950959 C21.7018216,15.4499257 18.5244849,13.060171 16.7545174,9.68712711 C16.7545174,9.68712711 7.79271541,-5.73963195 1.26605134,2.34224102 C-0.0442259096,3.96611039 -2.28158613,12.5101616 6.37118819,15.5205656 C7.16229899,15.7953742 18.6457666,18.2311783 25.4072917,16.1950959 Z" id="Path"></path>
                            <path d="M25.5927083,16.1950959 C29.2981784,15.4499257 32.4755151,13.060171 34.2454826,9.68712711 C34.2454826,9.68712711 43.2072846,-5.73963195 49.7339487,2.34224102 C51.0442259,3.96611039 53.2815861,12.5101616 44.6288118,15.5205656 C43.8500621,15.7953742 32.3665945,18.2311783 25.5927083,16.1950959 Z" id="Path"></path>
                        </g>
                    </g>
                </g>
            </g>
        </g>
    </g>
</svg>